<?xml version="1.0" encoding="UTF-8" standalone="no"?>
<svg
   xmlns:dc="http://purl.org/dc/elements/1.1/"
   xmlns:cc="http://creativecommons.org/ns#"
   xmlns:rdf="http://www.w3.org/1999/02/22-rdf-syntax-ns#"
   xmlns:svg="http://www.w3.org/2000/svg"
   xmlns="http://www.w3.org/2000/svg"
   viewBox="0 0 840 188.44"
   height="188.44"
   width="840"
   xml:space="preserve"
   id="svg2"
   version="1.1"><metadata
     id="metadata8"><rdf:RDF><cc:Work
         rdf:about=""><dc:format>image/svg+xml</dc:format><dc:type
           rdf:resource="http://purl.org/dc/dcmitype/StillImage" /></cc:Work></rdf:RDF></metadata><defs
     id="defs6" /><g
     transform="matrix(1.3333333,0,0,-1.3333333,0,188.44)"
     id="g10"><g
       transform="scale(0.1)"
       id="g12"><path
         id="path14"
         style="fill:#241709;fill-opacity:1;fill-rule:nonzero;stroke:none"
         d="M 597.504,956.664 V 741.09 h -46.856 v 63.629 c -29.425,-34.254 -76.871,-70.871 -175.375,-70.871 -169.371,0 -249.25,101.461 -249.25,228.238 0,150.114 101.504,230.014 248.625,230.014 103.911,0 183.821,-46.87 216.243,-120.09 l -44.426,-23.44 c -34.27,78.07 -114.735,99.06 -173.594,99.06 -122.523,0 -192.777,-67.86 -192.777,-192.181 0,-100.238 67.836,-174.734 197.582,-174.734 79.281,0 164.547,38.406 171.758,129.129 H 372.273 v 46.82 h 225.231" /><path
         id="path16"
         style="fill:#241709;fill-opacity:1;fill-rule:nonzero;stroke:none"
         d="m 766.234,984.902 h 187.379 c 76.287,0 133.337,10.782 133.337,75.058 0,63.71 -57.05,74.45 -133.337,74.45 H 766.234 Z m -52.851,196.378 h 252.246 c 69.691,0 171.801,-14.97 171.801,-121.89 0,-91.288 -84.7,-117.73 -137.551,-120.132 L 1144.01,744.629 h -65.46 L 938.023,938.07 H 766.234 V 744.629 h -52.851 v 436.651" /><path
         id="path18"
         style="fill:#241709;fill-opacity:1;fill-rule:nonzero;stroke:none"
         d="m 1235.29,1181.28 h 389.18 v -46.87 H 1288.12 V 995.113 h 281.13 V 948.246 H 1288.12 V 791.461 h 343.54 v -46.832 h -396.37 v 436.651" /><path
         id="path20"
         style="fill:#241709;fill-opacity:1;fill-rule:nonzero;stroke:none"
         d="M 2053.9,905 1936.77,1139.83 1819.65,905 Z m -149.56,276.28 h 64.86 l 224.02,-436.651 h -59.46 l -56.47,113.551 h -281.66 l -57.09,-113.551 h -58.84 l 224.64,436.651" /><path
         id="path22"
         style="fill:#241709;fill-opacity:1;fill-rule:nonzero;stroke:none"
         d="m 2363.75,1134.41 h -210.78 v 46.87 h 474.45 v -46.87 h -210.8 V 744.629 h -52.87 v 389.781" /><path
         id="path24"
         style="fill:#241709;fill-opacity:1;fill-rule:nonzero;stroke:none"
         d="m 2721.09,1181.28 h 389.19 v -46.87 H 2773.94 V 995.113 h 281.04 V 948.246 H 2773.94 V 791.461 h 343.56 v -46.832 h -396.41 v 436.651" /><path
         id="path26"
         style="fill:#241709;fill-opacity:1;fill-rule:nonzero;stroke:none"
         d="m 3265.19,984.902 h 187.42 c 76.27,0 133.41,10.782 133.41,75.058 0,63.71 -57.14,74.45 -133.41,74.45 h -187.42 z m -52.8,196.378 h 252.22 c 69.64,0 171.76,-14.97 171.76,-121.89 0,-91.288 -84.62,-117.73 -137.51,-120.132 L 3643.01,744.629 H 3577.5 L 3437.01,938.07 H 3265.19 V 744.629 h -52.8 v 436.651" /><path
         id="path28"
         style="fill:#241709;fill-opacity:1;fill-rule:nonzero;stroke:none"
         d="m 4513.78,1075.59 h -1.17 V 744.629 h -75.67 v 436.651 h 114.71 l 136.29,-323.717 138.78,323.717 h 112.24 V 744.629 h -75.63 v 330.961 h -1.17 L 4722.17,744.629 h -67.79 l -140.6,330.961" /><path
         id="path30"
         style="fill:#241709;fill-opacity:1;fill-rule:nonzero;stroke:none"
         d="m 5403.85,1048.57 c -13.79,39.02 -49.22,72.66 -153.08,72.66 -57.74,0 -115.97,-14.44 -115.97,-54.63 0,-18.6 10.8,-38.45 97.89,-49.28 L 5336,1001.71 c 97.88,-15.015 155.52,-52.894 155.52,-126.167 0,-103.285 -98.47,-141.695 -215.01,-141.695 -187.34,0 -233.03,92.468 -243.25,125.504 l 82.31,25.839 c 15.57,-31.812 48.04,-78.113 163.39,-78.113 69.64,0 127.3,22.863 127.3,60.66 0,28.317 -32.38,46.867 -94.91,54.723 l -104.48,14.394 c -100.85,13.833 -157.37,57.653 -157.37,124.335 0,130.91 170.01,130.91 203.62,130.91 187.97,0 220.42,-87.1 231.25,-117.08 l -80.52,-26.45" /><path
         id="path32"
         style="fill:#241709;fill-opacity:1;fill-rule:nonzero;stroke:none"
         d="m 5850.11,987.305 c 48.65,0 91.26,4.187 91.26,60.695 0,55.82 -42.61,60 -91.26,60 H 5673.5 V 987.305 Z m -261.93,193.975 h 243.28 c 73.9,0 195.21,0 195.21,-133.89 0,-133.402 -121.31,-133.402 -195.21,-133.402 H 5673.5 V 744.629 h -85.32 v 436.651" /><path
         id="path34"
         style="fill:#91dbe3;fill-opacity:1;fill-rule:nonzero;stroke:none"
         d="m 4063.87,1181.77 h -143.09 l 253.26,-220.95 -252,-216.191 h 143.09 l 250.93,216.191 -252.19,220.95" /><path
         id="path36"
         style="fill:#d4df39;fill-opacity:1;fill-rule:nonzero;stroke:none"
         d="m 3878.75,1133.6 h -98.7 L 3978.07,960.82 3781.12,791.863 h 98.65 l 196.3,168.957 -197.32,172.78" /><path
         id="path38"
         style="fill:#241709;fill-opacity:1;fill-rule:nonzero;stroke:none"
         d="m 273.219,257.109 v 123.313 h -0.555 L 234.91,257.109 h -11.586 l -37.918,123.313 h -0.562 V 257.109 H 171.391 V 391.98 h 23.164 l 34.386,-109.101 h 0.372 L 263.137,391.98 H 286.68 V 257.109 h -13.461" /><path
         id="path40"
         style="fill:#241709;fill-opacity:1;fill-rule:nonzero;stroke:none"
         d="m 329.82,354.262 h 13.461 V 257.109 H 329.82 Z m 13.461,39.609 v -16.07 H 329.82 v 16.07 h 13.461" /><path
         id="path42"
         style="fill:#241709;fill-opacity:1;fill-rule:nonzero;stroke:none"
         d="M 396.344,354.262 V 341.18 h 0.375 c 7.672,8.609 17.754,14.941 28.785,14.941 14.391,0 28.027,-7.48 28.027,-28.402 v -70.61 h -13.453 v 70.262 c 0,12.891 -6.172,17.168 -15.883,17.168 -10.086,0 -21.672,-8.23 -27.851,-14.769 v -72.661 h -13.446 v 97.153 h 13.446" /><path
         id="path44"
         style="fill:#241709;fill-opacity:1;fill-rule:nonzero;stroke:none"
         d="M 503.965,354.262 V 341.18 h 0.383 c 7.656,8.609 17.738,14.941 28.761,14.941 14.395,0 28.043,-7.48 28.043,-28.402 v -70.61 h -13.464 v 70.262 c 0,12.891 -6.161,17.168 -15.887,17.168 -10.09,0 -21.668,-8.23 -27.836,-14.769 v -72.661 h -13.442 v 97.153 h 13.442" /><path
         id="path46"
         style="fill:#241709;fill-opacity:1;fill-rule:nonzero;stroke:none"
         d="m 652.145,314.629 c 0,17.949 -8.606,29.91 -23.176,29.91 -16.254,0 -25.028,-11.961 -26.164,-29.91 z M 668.59,277.84 c -6.363,-11.02 -15.328,-22.621 -37.383,-22.621 -21.672,0 -42.227,14.961 -42.227,50.453 0,31.387 15.7,50.449 39.618,50.449 20.179,0 37,-13.07 37,-44.082 v -8.988 h -63.157 c 0,-21.289 12.696,-36.231 28.766,-36.231 11.973,0 21.309,6.352 26.906,16.43 l 10.477,-5.41" /><path
         id="path48"
         style="fill:#241709;fill-opacity:1;fill-rule:nonzero;stroke:none"
         d="m 745.93,309.602 c -30.836,-5.411 -45.969,-14.383 -45.969,-27.84 0,-8.961 8.602,-14.942 16.062,-14.942 9.735,0 22.059,7.09 29.907,16.059 z m -56.61,25.968 c 6.153,11.211 18.121,20.551 36.438,20.551 16.433,0 33.629,-7.851 33.629,-29.141 v -48.949 c 0,-10.66 0.922,-15.902 2.238,-20.922 h -13.832 l -1.48,13.461 c -6.735,-7.48 -17.567,-15.351 -32.141,-15.351 -14.957,0 -27.652,8.98 -27.652,26.742 0,21.289 16.238,31.949 59.41,39.609 v 5.231 c 0,12.89 -8.407,17.738 -19.992,17.738 -14.942,0 -22.227,-8.578 -24.848,-15.16 l -11.77,6.191" /><path
         id="path50"
         style="fill:#241709;fill-opacity:1;fill-rule:nonzero;stroke:none"
         d="m 805.723,280.281 c 7.285,-8.051 16.433,-13.461 24.465,-13.461 15.703,0 27.48,10.282 27.48,39.61 0,24.672 -10.641,38.109 -27.48,38.109 -8.586,0 -14.946,-3.73 -24.465,-13.09 z m -13.442,-59.062 v 133.043 h 13.442 v -11.403 h 0.367 c 5.058,7.282 15.887,13.262 25.223,13.262 17.195,0 39.808,-11.582 39.808,-50.449 0,-37.731 -22.613,-50.453 -39.058,-50.453 -9.157,0 -18.114,4.672 -25.583,10.859 l -0.757,0.371 v -45.23 h -13.442" /><path
         id="path52"
         style="fill:#241709;fill-opacity:1;fill-rule:nonzero;stroke:none"
         d="m 930.156,344.539 c -16.058,0 -26.347,-13.809 -26.347,-38.867 0,-25.043 10.289,-38.852 26.347,-38.852 16.074,0 26.348,13.809 26.348,38.852 0,25.058 -10.274,38.867 -26.348,38.867 z m 0,-89.32 c -26.527,0 -39.785,22.441 -39.785,50.453 0,28.027 13.258,50.449 39.785,50.449 26.532,0 39.809,-22.422 39.809,-50.449 0,-28.012 -13.277,-50.453 -39.809,-50.453" /><path
         id="path54"
         style="fill:#241709;fill-opacity:1;fill-rule:nonzero;stroke:none"
         d="m 999.848,257.109 h 13.4414 V 391.98 H 999.848 Z" /><path
         id="path56"
         style="fill:#241709;fill-opacity:1;fill-rule:nonzero;stroke:none"
         d="m 1055.52,354.262 h 13.46 v -97.153 h -13.46 z m 13.46,39.609 v -16.07 h -13.46 v 16.07 h 13.46" /><path
         id="path58"
         style="fill:#241709;fill-opacity:1;fill-rule:nonzero;stroke:none"
         d="m 1107.11,281.762 c 6.34,-9.184 15.68,-14.942 27.83,-14.942 14.58,0 20.92,7.809 20.92,16.059 0,24.66 -57.55,11.601 -56.42,47.07 0.56,16.832 13.45,26.34 32.14,26.172 12.7,-0.18 26.72,-7.109 33.25,-17.012 l -9.34,-8.211 c -7.46,9.161 -14.57,13.641 -25.04,13.641 -11.38,0 -17.56,-5.801 -17.56,-14.379 0,-21.109 56.44,-10.289 56.44,-46.519 0,-18.871 -16.45,-28.422 -34.02,-28.422 -15.13,0 -29.89,6.543 -38.87,18.519 l 10.67,8.024" /><path
         id="path60"
         style="fill:#241709;fill-opacity:1;fill-rule:nonzero;stroke:none"
         d="m 1323.08,357.621 c -3.35,13.07 -14.01,23.559 -31.38,23.559 -15.68,0 -25.04,-7.481 -25.22,-20.942 -0.39,-29.508 75.85,-22.047 75.85,-65.41 0,-19.609 -11.01,-39.609 -45.41,-39.609 -29.51,0 -41.1,19.062 -48.19,35.121 l 13.63,4.879 c 5.42,-14.219 15.52,-27.278 35.33,-27.278 19.8,0 29.69,10.438 29.69,24.289 0,34.36 -75.86,24.282 -75.86,66.899 0,19.41 16.26,34.742 40.55,34.742 20.93,0 37.37,-11.012 44.47,-33.262 l -13.46,-2.988" /><path
         id="path62"
         style="fill:#241709;fill-opacity:1;fill-rule:nonzero;stroke:none"
         d="m 1424.54,309.602 c -30.83,-5.411 -45.96,-14.383 -45.96,-27.84 0,-8.961 8.6,-14.942 16.07,-14.942 9.71,0 22.04,7.09 29.89,16.059 z m -56.61,25.968 c 6.17,11.211 18.11,20.551 36.43,20.551 16.45,0 33.64,-7.851 33.64,-29.141 v -48.949 c 0,-10.66 0.93,-15.902 2.23,-20.922 h -13.82 l -1.47,13.461 c -6.74,-7.48 -17.59,-15.351 -32.16,-15.351 -14.94,0 -27.64,8.98 -27.64,26.742 0,21.289 16.24,31.949 59.4,39.609 v 5.231 c 0,12.89 -8.4,17.738 -19.99,17.738 -14.95,0 -22.23,-8.578 -24.84,-15.16 l -11.78,6.191" /><path
         id="path64"
         style="fill:#241709;fill-opacity:1;fill-rule:nonzero;stroke:none"
         d="m 1473.69,354.262 h 13.45 v -97.153 h -13.45 z m 13.45,39.609 v -16.07 h -13.45 v 16.07 h 13.45" /><path
         id="path66"
         style="fill:#241709;fill-opacity:1;fill-rule:nonzero;stroke:none"
         d="M 1540.19,354.262 V 341.18 h 0.37 c 7.68,8.609 17.76,14.941 28.79,14.941 14.38,0 28.02,-7.48 28.02,-28.402 v -70.61 h -13.44 v 70.262 c 0,12.891 -6.17,17.168 -15.89,17.168 -10.09,0 -21.67,-8.23 -27.85,-14.769 v -72.661 h -13.44 v 97.153 h 13.44" /><path
         id="path68"
         style="fill:#241709;fill-opacity:1;fill-rule:nonzero;stroke:none"
         d="m 1636.98,354.262 v 31.937 h 13.45 v -31.937 h 22.42 V 342.68 h -22.42 v -69.141 c 0,-4.488 3.17,-6.719 11.03,-6.719 4.47,0 8.41,0.352 11.97,0.918 v -11.019 c -2.44,-0.739 -7.86,-1.5 -15.71,-1.5 -14.58,0 -20.74,3.75 -20.74,16.07 v 71.391 h -15.88 v 11.582 h 15.88" /><path
         id="path70"
         style="fill:#241709;fill-opacity:1;fill-rule:nonzero;stroke:none"
         d="m 1778.05,329.949 h 25.4 c 24.86,0 33.07,8.629 33.07,24.68 0,16.062 -9.52,24.672 -29.69,24.672 h -28.78 z m -14.95,-72.84 V 391.98 h 47.08 c 28.77,0 41.3,-16.41 41.3,-37.718 0,-22.422 -15.51,-37.012 -49.51,-37.012 h -23.92 v -60.141 h -14.95" /><path
         id="path72"
         style="fill:#241709;fill-opacity:1;fill-rule:nonzero;stroke:none"
         d="m 1929.58,309.602 c -30.84,-5.411 -45.96,-14.383 -45.96,-27.84 0,-8.961 8.58,-14.942 16.05,-14.942 9.72,0 22.06,7.09 29.91,16.059 z m -56.62,25.968 c 6.17,11.211 18.12,20.551 36.43,20.551 16.45,0 33.64,-7.851 33.64,-29.141 v -48.949 c 0,-10.66 0.93,-15.902 2.23,-20.922 h -13.81 l -1.5,13.461 c -6.73,-7.48 -17.56,-15.351 -32.14,-15.351 -14.95,0 -27.64,8.98 -27.64,26.742 0,21.289 16.24,31.949 59.41,39.609 v 5.231 c 0,12.89 -8.42,17.738 -19.99,17.738 -14.96,0 -22.25,-8.578 -24.86,-15.16 l -11.77,6.191" /><path
         id="path74"
         style="fill:#241709;fill-opacity:1;fill-rule:nonzero;stroke:none"
         d="m 2033.28,257.109 v 13.071 h -0.38 c -7.66,-8.59 -17.74,-14.961 -28.77,-14.961 -14.38,0 -28.03,7.48 -28.03,28.422 v 70.621 h 13.46 v -70.274 c 0,-12.886 6.16,-17.168 15.87,-17.168 10.09,0 21.69,8.2 27.85,14.75 v 72.692 h 13.45 v -97.153 h -13.45" /><path
         id="path76"
         style="fill:#241709;fill-opacity:1;fill-rule:nonzero;stroke:none"
         d="m 2086.33,257.109 h 13.4492 V 391.98 H 2086.33 Z" /><path
         id="path78"
         style="fill:#241709;fill-opacity:1;fill-rule:nonzero;stroke:none"
         d="m 2217.13,331.102 h 27.1 c 20.54,0 31.39,7.636 31.39,24.628 0,18.161 -12.33,23.571 -31.58,23.571 h -26.91 z m -14.95,-73.993 V 391.98 h 43.35 c 29.15,0 45.04,-13.05 45.04,-35.468 0,-19.082 -11.05,-29.922 -26.91,-35.121 l 28.59,-64.282 h -16.27 l -27.26,61.27 h -31.59 v -61.27 h -14.95" /><path
         id="path80"
         style="fill:#241709;fill-opacity:1;fill-rule:nonzero;stroke:none"
         d="m 2382.48,314.629 c 0,17.949 -8.58,29.91 -23.15,29.91 -16.27,0 -25.05,-11.961 -26.16,-29.91 z m 16.45,-36.789 c -6.36,-11.02 -15.32,-22.621 -37.36,-22.621 -21.69,0 -42.24,14.961 -42.24,50.453 0,31.387 15.69,50.449 39.61,50.449 20.18,0 37,-13.07 37,-44.082 v -8.988 h -63.16 c 0,-21.289 12.72,-36.231 28.79,-36.231 11.95,0 21.29,6.352 26.91,16.43 l 10.45,-5.41" /><path
         id="path82"
         style="fill:#241709;fill-opacity:1;fill-rule:nonzero;stroke:none"
         d="m 2453.1,344.539 c -15.31,0 -23.54,-9.687 -23.54,-22.43 0,-12.89 10.11,-22.418 25.05,-22.418 15.31,0 23.15,10.098 23.15,21.7 0,14.179 -8.2,23.148 -24.66,23.148 z m -0.56,-83.34 c -21.11,0 -27.08,-9.34 -27.08,-16.25 0,-7.289 4.47,-12.129 31.39,-12.129 16.05,0 29.15,4.469 29.33,14.02 -0.18,9.488 -9.9,14.359 -33.64,14.359 z m 46.15,83.34 c -5.6,0 -11.59,-0.937 -14.94,-2.617 2.81,-3.344 6.74,-10.82 6.74,-19.813 0,-19.25 -15.89,-34 -35.51,-34 -7.84,0 -11.96,1.11 -17.19,2.621 -5.23,-1.511 -7.65,-4.691 -7.65,-8.968 0,-4.492 3.16,-7.133 8.02,-7.133 45.96,0 60.73,-8.18 60.73,-27.238 0,-14.219 -14.02,-26.172 -44.28,-26.172 -27.29,0 -41.87,7.48 -41.87,23.551 0,9.71 5.99,14.378 16.45,19.789 -7.47,2.261 -12.14,8.019 -12.14,13.82 0,8.402 5.6,11.961 13.09,16.66 -9.17,6.922 -13.28,16.43 -13.28,27.07 0,20.571 16.07,34.012 36.81,34.012 10.47,0 17.75,-2.25 24.09,-6.723 5.8,4.102 13.65,7.852 20.93,8.571 v -13.43" /><path
         id="path84"
         style="fill:#241709;fill-opacity:1;fill-rule:nonzero;stroke:none"
         d="m 2525.41,354.262 h 13.47 v -97.153 h -13.47 z m 13.47,39.609 v -16.07 h -13.47 v 16.07 h 13.47" /><path
         id="path86"
         style="fill:#241709;fill-opacity:1;fill-rule:nonzero;stroke:none"
         d="m 2608.56,344.539 c -16.07,0 -26.34,-13.809 -26.34,-38.867 0,-25.043 10.27,-38.852 26.34,-38.852 16.07,0 26.36,13.809 26.36,38.852 0,25.058 -10.29,38.867 -26.36,38.867 z m 0,-89.32 c -26.52,0 -39.81,22.441 -39.81,50.453 0,28.027 13.29,50.449 39.81,50.449 26.54,0 39.79,-22.422 39.79,-50.449 0,-28.012 -13.25,-50.453 -39.79,-50.453" /><path
         id="path88"
         style="fill:#241709;fill-opacity:1;fill-rule:nonzero;stroke:none"
         d="M 2689.09,354.262 V 341.18 h 0.37 c 7.68,8.609 17.76,14.941 28.78,14.941 14.39,0 28.03,-7.48 28.03,-28.402 v -70.61 h -13.45 v 70.262 c 0,12.891 -6.17,17.168 -15.89,17.168 -10.08,0 -21.67,-8.23 -27.84,-14.769 v -72.661 h -13.45 v 97.153 h 13.45" /><path
         id="path90"
         style="fill:#241709;fill-opacity:1;fill-rule:nonzero;stroke:none"
         d="m 2833.91,309.602 c -30.84,-5.411 -45.97,-14.383 -45.97,-27.84 0,-8.961 8.59,-14.942 16.05,-14.942 9.72,0 22.07,7.09 29.92,16.059 z m -56.62,25.968 c 6.16,11.211 18.13,20.551 36.42,20.551 16.45,0 33.63,-7.851 33.63,-29.141 v -48.949 c 0,-10.66 0.96,-15.902 2.25,-20.922 h -13.82 l -1.5,13.461 c -6.73,-7.48 -17.55,-15.351 -32.13,-15.351 -14.96,0 -27.66,8.98 -27.66,26.742 0,21.289 16.26,31.949 59.43,39.609 v 5.231 c 0,12.89 -8.42,17.738 -19.99,17.738 -14.96,0 -22.25,-8.578 -24.87,-15.16 l -11.76,6.191" /><path
         id="path92"
         style="fill:#241709;fill-opacity:1;fill-rule:nonzero;stroke:none"
         d="m 2883.04,257.109 h 13.4492 V 391.98 H 2883.04 Z" /><path
         id="path94"
         style="fill:#241709;fill-opacity:1;fill-rule:nonzero;stroke:none"
         d="m 3081.28,391.98 v -12.679 h -65.96 V 334.09 h 46.92 v -12.699 h -46.92 v -51.602 h 69.69 v -12.68 h -84.63 V 391.98 h 80.9" /><path
         id="path96"
         style="fill:#241709;fill-opacity:1;fill-rule:nonzero;stroke:none"
         d="m 3168.36,325.301 c -3.75,11.758 -11.41,19.238 -22.99,19.238 -16.63,0 -26.37,-14.199 -26.37,-38.867 0,-24.672 9.74,-38.852 26.37,-38.852 12.33,0 19.24,4.102 26.71,17.93 l 10.84,-4.84 c -9.72,-16.469 -18.31,-24.691 -37.55,-24.691 -24.3,0 -39.81,19.062 -39.81,50.453 0,31.387 15.51,50.449 39.81,50.449 19.99,0 29.33,-11.211 35.49,-26.351 l -12.5,-4.469" /><path
         id="path98"
         style="fill:#241709;fill-opacity:1;fill-rule:nonzero;stroke:none"
         d="m 3241.95,344.539 c -16.05,0 -26.33,-13.809 -26.33,-38.867 0,-25.043 10.28,-38.852 26.33,-38.852 16.07,0 26.35,13.809 26.35,38.852 0,25.058 -10.28,38.867 -26.35,38.867 z m 0,-89.32 c -26.53,0 -39.79,22.441 -39.79,50.453 0,28.027 13.26,50.449 39.79,50.449 26.55,0 39.8,-22.422 39.8,-50.449 0,-28.012 -13.25,-50.453 -39.8,-50.453" /><path
         id="path100"
         style="fill:#241709;fill-opacity:1;fill-rule:nonzero;stroke:none"
         d="M 3322.5,354.262 V 341.18 h 0.37 c 7.65,8.609 17.75,14.941 28.78,14.941 14.37,0 28.01,-7.48 28.01,-28.402 v -70.61 h -13.45 v 70.262 c 0,12.891 -6.16,17.168 -15.88,17.168 -10.09,0 -21.67,-8.23 -27.83,-14.769 v -72.661 h -13.47 v 97.153 h 13.47" /><path
         id="path102"
         style="fill:#241709;fill-opacity:1;fill-rule:nonzero;stroke:none"
         d="m 3446.76,344.539 c -16.09,0 -26.36,-13.809 -26.36,-38.867 0,-25.043 10.27,-38.852 26.36,-38.852 16.05,0 26.34,13.809 26.34,38.852 0,25.058 -10.29,38.867 -26.34,38.867 z m 0,-89.32 c -26.57,0 -39.83,22.441 -39.83,50.453 0,28.027 13.26,50.449 39.83,50.449 26.52,0 39.77,-22.422 39.77,-50.449 0,-28.012 -13.25,-50.453 -39.77,-50.453" /><path
         id="path104"
         style="fill:#241709;fill-opacity:1;fill-rule:nonzero;stroke:none"
         d="m 3512.51,257.109 v 97.153 h 13.45 v -12.91 l 0.75,0.777 c 8.23,9.133 18.88,13.992 28.21,13.992 12.51,0 21.31,-6.332 24.87,-15.312 8.57,9.14 19.43,15.312 30.81,15.312 12.91,0 26.71,-5.41 26.71,-29.531 v -69.481 h -13.45 v 69.481 c 0,13.101 -6.52,17.949 -15.1,17.949 -11.96,0 -19.83,-7.84 -27.13,-14.937 v -72.493 h -13.45 v 69.481 c 0,13.101 -6.54,17.949 -15.14,17.949 -11.96,0 -19.79,-7.84 -27.08,-14.937 v -72.493 h -13.45" /><path
         id="path106"
         style="fill:#241709;fill-opacity:1;fill-rule:nonzero;stroke:none"
         d="m 3675.81,354.262 h 13.47 v -97.153 h -13.47 z m 13.47,39.609 v -16.07 h -13.47 v 16.07 h 13.47" /><path
         id="path108"
         style="fill:#241709;fill-opacity:1;fill-rule:nonzero;stroke:none"
         d="m 3782.48,325.301 c -3.73,11.758 -11.39,19.238 -22.96,19.238 -16.64,0 -26.35,-14.199 -26.35,-38.867 0,-24.672 9.71,-38.852 26.35,-38.852 12.33,0 19.23,4.102 26.71,17.93 l 10.83,-4.84 c -9.72,-16.469 -18.31,-24.691 -37.54,-24.691 -24.31,0 -39.8,19.062 -39.8,50.453 0,31.387 15.49,50.449 39.8,50.449 19.99,0 29.33,-11.211 35.5,-26.351 l -12.54,-4.469" /><path
         id="path110"
         style="fill:#241709;fill-opacity:1;fill-rule:nonzero;stroke:none"
         d="m 3903.76,269.789 h 20.18 c 31.01,0 47.08,18.5 47.08,54.75 0,39.43 -18.68,54.762 -46.32,54.762 h -20.94 z m -14.95,122.191 h 36.25 c 36.62,0 60.9,-23.128 60.9,-67.441 0,-39.609 -21.27,-67.43 -61.64,-67.43 h -35.51 V 391.98" /><path
         id="path112"
         style="fill:#241709;fill-opacity:1;fill-rule:nonzero;stroke:none"
         d="m 4069.12,314.629 c 0,17.949 -8.6,29.91 -23.17,29.91 -16.26,0 -25.05,-11.961 -26.15,-29.91 z m 16.43,-36.789 c -6.34,-11.02 -15.32,-22.621 -37.37,-22.621 -21.67,0 -42.22,14.961 -42.22,50.453 0,31.387 15.71,50.449 39.61,50.449 20.18,0 37,-13.07 37,-44.082 v -8.988 h -63.15 c 0,-21.289 12.69,-36.231 28.76,-36.231 11.97,0 21.31,6.352 26.91,16.43 l 10.46,-5.41" /><path
         id="path114"
         style="fill:#241709;fill-opacity:1;fill-rule:nonzero;stroke:none"
         d="m 4146.45,257.109 h -17.93 l -29.9,97.153 h 13.65 l 24.64,-80.352 h 0.37 l 24.69,80.352 h 13.63 l -29.15,-97.153" /><path
         id="path116"
         style="fill:#241709;fill-opacity:1;fill-rule:nonzero;stroke:none"
         d="m 4252.97,314.629 c 0,17.949 -8.61,29.91 -23.19,29.91 -16.25,0 -25.02,-11.961 -26.15,-29.91 z m 16.42,-36.789 c -6.33,-11.02 -15.31,-22.621 -37.36,-22.621 -21.67,0 -42.24,14.961 -42.24,50.453 0,31.387 15.71,50.449 39.63,50.449 20.19,0 37,-13.07 37,-44.082 v -8.988 h -63.17 c 0,-21.289 12.73,-36.231 28.78,-36.231 11.97,0 21.31,6.352 26.91,16.43 l 10.45,-5.41" /><path
         id="path118"
         style="fill:#241709;fill-opacity:1;fill-rule:nonzero;stroke:none"
         d="m 4298.75,257.109 h 13.4688 V 391.98 H 4298.75 Z" /><path
         id="path120"
         style="fill:#241709;fill-opacity:1;fill-rule:nonzero;stroke:none"
         d="m 4381.9,344.539 c -16.08,0 -26.34,-13.809 -26.34,-38.867 0,-25.043 10.26,-38.852 26.34,-38.852 16.06,0 26.35,13.809 26.35,38.852 0,25.058 -10.29,38.867 -26.35,38.867 z m 0,-89.32 c -26.55,0 -39.81,22.441 -39.81,50.453 0,28.027 13.26,50.449 39.81,50.449 26.54,0 39.78,-22.422 39.78,-50.449 0,-28.012 -13.24,-50.453 -39.78,-50.453" /><path
         id="path122"
         style="fill:#241709;fill-opacity:1;fill-rule:nonzero;stroke:none"
         d="m 4462.25,280.281 c 7.26,-8.051 16.41,-13.461 24.46,-13.461 15.69,0 27.46,10.282 27.46,39.61 0,24.672 -10.65,38.109 -27.46,38.109 -8.61,0 -14.97,-3.73 -24.46,-13.09 z m -13.47,-59.062 v 133.043 h 13.47 v -11.403 h 0.36 c 5.05,7.282 15.86,13.262 25.21,13.262 17.18,0 39.81,-11.582 39.81,-50.449 0,-37.731 -22.63,-50.453 -39.06,-50.453 -9.16,0 -18.12,4.672 -25.59,10.859 l -0.73,0.371 v -45.23 h -13.47" /><path
         id="path124"
         style="fill:#241709;fill-opacity:1;fill-rule:nonzero;stroke:none"
         d="m 4555.28,257.109 v 97.153 h 13.46 v -12.91 l 0.72,0.777 c 8.24,9.133 18.88,13.992 28.22,13.992 12.53,0 21.3,-6.332 24.89,-15.312 8.55,9.14 19.4,15.312 30.81,15.312 12.89,0 26.71,-5.41 26.71,-29.531 v -69.481 h -13.45 v 69.481 c 0,13.101 -6.54,17.949 -15.13,17.949 -11.95,0 -19.83,-7.84 -27.11,-14.937 v -72.493 h -13.44 v 69.481 c 0,13.101 -6.54,17.949 -15.15,17.949 -11.94,0 -19.79,-7.84 -27.07,-14.937 v -72.493 h -13.46" /><path
         id="path126"
         style="fill:#241709;fill-opacity:1;fill-rule:nonzero;stroke:none"
         d="m 4769.96,314.629 c 0,17.949 -8.6,29.91 -23.18,29.91 -16.25,0 -25.04,-11.961 -26.15,-29.91 z m 16.45,-36.789 c -6.35,-11.02 -15.34,-22.621 -37.37,-22.621 -21.69,0 -42.24,14.961 -42.24,50.453 0,31.387 15.69,50.449 39.62,50.449 20.18,0 36.99,-13.07 36.99,-44.082 v -8.988 h -63.17 c 0,-21.289 12.72,-36.231 28.8,-36.231 11.96,0 21.29,6.352 26.9,16.43 l 10.47,-5.41" /><path
         id="path128"
         style="fill:#241709;fill-opacity:1;fill-rule:nonzero;stroke:none"
         d="M 4826.59,354.262 V 341.18 h 0.37 c 7.66,8.609 17.74,14.941 28.76,14.941 14.41,0 28.02,-7.48 28.02,-28.402 v -70.61 h -13.44 v 70.262 c 0,12.891 -6.16,17.168 -15.88,17.168 -10.1,0 -21.67,-8.23 -27.83,-14.769 v -72.661 h -13.47 v 97.153 h 13.47" /><path
         id="path130"
         style="fill:#241709;fill-opacity:1;fill-rule:nonzero;stroke:none"
         d="m 4923.36,354.262 v 31.937 h 13.45 v -31.937 h 22.44 V 342.68 h -22.44 v -69.141 c 0,-4.488 3.18,-6.719 11.03,-6.719 4.47,0 8.39,0.352 11.94,0.918 v -11.019 c -2.42,-0.739 -7.85,-1.5 -15.69,-1.5 -14.57,0 -20.73,3.75 -20.73,16.07 v 71.391 h -15.9 v 11.582 h 15.9" /><path
         id="path132"
         style="fill:#241709;fill-opacity:1;fill-rule:nonzero;stroke:none"
         d="m 5064.44,329.949 h 25.4 c 24.83,0 33.08,8.629 33.08,24.68 0,16.062 -9.53,24.672 -29.73,24.672 h -28.75 z m -14.95,-72.84 V 391.98 h 47.07 c 28.78,0 41.32,-16.41 41.32,-37.718 0,-22.422 -15.54,-37.012 -49.54,-37.012 h -23.9 v -60.141 h -14.95" /><path
         id="path134"
         style="fill:#241709;fill-opacity:1;fill-rule:nonzero;stroke:none"
         d="m 5215.95,309.602 c -30.82,-5.411 -45.95,-14.383 -45.95,-27.84 0,-8.961 8.59,-14.942 16.06,-14.942 9.72,0 22.06,7.09 29.89,16.059 z m -56.61,25.968 c 6.17,11.211 18.13,20.551 36.44,20.551 16.45,0 33.62,-7.851 33.62,-29.141 v -48.949 c 0,-10.66 0.95,-15.902 2.25,-20.922 h -13.84 l -1.49,13.461 c -6.73,-7.48 -17.56,-15.351 -32.13,-15.351 -14.93,0 -27.66,8.98 -27.66,26.742 0,21.289 16.26,31.949 59.42,39.609 v 5.231 c 0,12.89 -8.4,17.738 -19.98,17.738 -14.95,0 -22.24,-8.578 -24.87,-15.16 l -11.76,6.191" /><path
         id="path136"
         style="fill:#241709;fill-opacity:1;fill-rule:nonzero;stroke:none"
         d="m 5258.91,354.262 h 13.45 V 335.02 h 0.37 c 7.48,13.25 15.54,20.71 31.58,20.71 v -13.421 c -16.81,-0.387 -25.58,-11.411 -31.95,-31.411 v -53.789 h -13.45 v 97.153" /><path
         id="path138"
         style="fill:#241709;fill-opacity:1;fill-rule:nonzero;stroke:none"
         d="m 5331.02,354.262 v 31.937 h 13.47 v -31.937 h 22.41 V 342.68 h -22.41 v -69.141 c 0,-4.488 3.19,-6.719 11.02,-6.719 4.5,0 8.43,0.352 11.95,0.918 v -11.019 c -2.43,-0.739 -7.84,-1.5 -15.68,-1.5 -14.58,0 -20.76,3.75 -20.76,16.07 v 71.391 h -15.85 v 11.582 h 15.85" /><path
         id="path140"
         style="fill:#241709;fill-opacity:1;fill-rule:nonzero;stroke:none"
         d="M 5407.85,354.262 V 341.18 h 0.36 c 7.66,8.609 17.76,14.941 28.78,14.941 14.4,0 28.01,-7.48 28.01,-28.402 v -70.61 h -13.45 v 70.262 c 0,12.891 -6.15,17.168 -15.88,17.168 -10.08,0 -21.67,-8.23 -27.82,-14.769 v -72.661 h -13.46 v 97.153 h 13.46" /><path
         id="path142"
         style="fill:#241709;fill-opacity:1;fill-rule:nonzero;stroke:none"
         d="m 5556.02,314.629 c 0,17.949 -8.61,29.91 -23.18,29.91 -16.26,0 -25.06,-11.961 -26.17,-29.91 z m 16.41,-36.789 c -6.34,-11.02 -15.31,-22.621 -37.35,-22.621 -21.67,0 -42.23,14.961 -42.23,50.453 0,31.387 15.69,50.449 39.61,50.449 20.17,0 36.99,-13.07 36.99,-44.082 v -8.988 h -63.16 c 0,-21.289 12.71,-36.231 28.79,-36.231 11.96,0 21.3,6.352 26.91,16.43 l 10.44,-5.41" /><path
         id="path144"
         style="fill:#241709;fill-opacity:1;fill-rule:nonzero;stroke:none"
         d="m 5595.6,354.262 h 13.47 V 335.02 h 0.36 c 7.48,13.25 15.52,20.71 31.59,20.71 v -13.421 c -16.81,-0.387 -25.58,-11.411 -31.95,-31.411 v -53.789 h -13.47 v 97.153" /><path
         id="path146"
         style="fill:#241709;fill-opacity:1;fill-rule:nonzero;stroke:none"
         d="m 5663.61,281.762 c 6.36,-9.184 15.71,-14.942 27.84,-14.942 14.59,0 20.93,7.809 20.93,16.059 0,24.66 -57.53,11.601 -56.41,47.07 0.55,16.832 13.46,26.34 32.13,26.172 12.7,-0.18 26.73,-7.109 33.26,-17.012 l -9.35,-8.211 c -7.49,9.161 -14.58,13.641 -25.03,13.641 -11.39,0 -17.55,-5.801 -17.55,-14.379 0,-21.109 56.4,-10.289 56.4,-46.519 0,-18.871 -16.45,-28.422 -34,-28.422 -15.13,0 -29.88,6.543 -38.85,18.519 l 10.63,8.024" /><path
         id="path148"
         style="fill:#241709;fill-opacity:1;fill-rule:nonzero;stroke:none"
         d="m 5765.26,391.98 v -50.8 h 0.39 c 7.65,8.609 17.75,14.941 28.76,14.941 14.38,0 28.03,-7.48 28.03,-28.402 v -70.61 h -13.45 v 70.262 c 0,12.891 -6.18,17.168 -15.9,17.168 -10.06,0 -21.66,-8.23 -27.83,-14.769 v -72.661 h -13.44 V 391.98 h 13.44" /><path
         id="path150"
         style="fill:#241709;fill-opacity:1;fill-rule:nonzero;stroke:none"
         d="m 5862.05,354.262 h 13.46 v -97.153 h -13.46 z m 13.46,39.609 v -16.07 h -13.46 v 16.07 h 13.46" /><path
         id="path152"
         style="fill:#241709;fill-opacity:1;fill-rule:nonzero;stroke:none"
         d="m 5928.39,280.281 c 7.3,-8.051 16.41,-13.461 24.47,-13.461 15.67,0 27.46,10.282 27.46,39.61 0,24.672 -10.64,38.109 -27.46,38.109 -8.6,0 -14.94,-3.73 -24.47,-13.09 z m -13.46,-59.062 v 133.043 h 13.46 v -11.403 h 0.36 c 5.06,7.282 15.89,13.262 25.22,13.262 17.2,0 39.81,-11.582 39.81,-50.449 0,-37.731 -22.61,-50.453 -39.04,-50.453 -9.15,0 -18.14,4.672 -25.62,10.859 l -0.73,0.371 v -45.23 h -13.46" /><g
         transform="scale(10)"
         id="g154"><text
           id="text158"
           style="font-variant:normal;font-weight:normal;font-size:10px;font-family:'Trade Winds';-inkscape-font-specification:TradeGothicLTStd;writing-mode:lr-tb;fill:#231f20;fill-opacity:1;fill-rule:nonzero;stroke:none"
           transform="matrix(1,0,0,-1,603.308,111.199)"><tspan
             id="tspan156"
             y="0"
             x="0">®</tspan></text>
</g></g></g></svg>