<?xml version="1.0" encoding="UTF-8" standalone="no"?>
<svg
   xmlns:dc="http://purl.org/dc/elements/1.1/"
   xmlns:cc="http://creativecommons.org/ns#"
   xmlns:rdf="http://www.w3.org/1999/02/22-rdf-syntax-ns#"
   xmlns:svg="http://www.w3.org/2000/svg"
   xmlns="http://www.w3.org/2000/svg"
   viewBox="0 0 199.65334 13.226667"
   height="13.226667"
   width="199.65334"
   xml:space="preserve"
   id="svg2"
   version="1.1"><metadata
     id="metadata8"><rdf:RDF><cc:Work
         rdf:about=""><dc:format>image/svg+xml</dc:format><dc:type
           rdf:resource="http://purl.org/dc/dcmitype/StillImage" /></cc:Work></rdf:RDF></metadata><defs
     id="defs6" /><g
     transform="matrix(1.3333333,0,0,-1.3333333,0,13.226667)"
     id="g10"><g
       transform="scale(0.1)"
       id="g12"><path
         id="path14"
         style="fill:#231f20;fill-opacity:1;fill-rule:nonzero;stroke:none"
         d="m 27.4609,97.1211 h 43.086 v -3.125 h -2.3242 c -4.5704,0 -7.5547,-0.3711 -8.9649,-1.125 -1.414,-0.7695 -2.3515,-2.168 -2.7969,-4.2188 C 55.9961,86.582 55.7617,81.6914 55.7617,73.9648 V 42.1992 c 0,-7.8906 -0.2969,-13.8594 -0.914,-17.9804 C 54.2188,20.0977 52.5156,16.0859 49.6758,12.168 46.8516,8.28125 43.0703,5.25391 38.3594,3.14453 33.6328,1.04297 28.1563,0 21.8984,0 14.8828,0 9.46875,1.30859 5.68359,3.88672 1.89453,6.48438 0,9.58984 0,13.1563 c 0,2.1562 0.679688,3.9726 2.03125,5.457 1.36328,1.4648 3.02734,2.1875 5.01172,2.1875 2.02344,0 3.71873,-0.6445 5.07033,-1.961 1.3672,-1.3203 2.0469,-2.9414 2.0469,-4.8671 0,-1.1407 -0.2813,-2.3125 -0.836,-3.5625 -0.5078,-1.08207 -0.7539,-1.89457 -0.7539,-2.44145 0,-1.45312 0.8555,-2.59766 2.586,-3.41797 1.7382,-0.80078 3.875,-1.23047 6.4375,-1.23047 5.1992,0 9.5664,1.66016 13.1328,4.96875 3.5507,3.31254 5.6875,7.21874 6.4218,11.73044 0.7266,4.4922 1.0977,11.9258 1.0977,22.2852 v 31.6992 c 0,7.3945 -0.2227,12.1563 -0.6523,14.3086 -0.4415,2.1484 -1.3594,3.6328 -2.754,4.4531 -1.3984,0.8203 -4.4609,1.2305 -9.1718,1.2305 h -2.2071 v 3.125" /><path
         id="path16"
         style="fill:#231f20;fill-opacity:1;fill-rule:nonzero;stroke:none"
         d="m 108.648,51.3555 h 6.665 c 5.367,0 9.699,0.5195 13.003,1.6133 3.289,1.0546 6.047,3.3281 8.243,6.7656 2.203,3.4492 3.3,7.6875 3.3,12.7265 0,7.7032 -1.894,13.3516 -5.675,16.9649 -3.774,3.6015 -9.903,5.4101 -18.387,5.4101 -3.117,0 -5.504,-0.0976 -7.149,-0.2929 z m 0,-3.3477 V 28.3789 c 0,-7.3633 0.176,-12.168 0.528,-14.4336 0.34,-2.2656 1.269,-3.96483 2.789,-5.05858 1.508,-1.11328 4.363,-1.66016 8.558,-1.66016 h 3.098 v -3.125 H 80.7656 v 3.125 h 2.4883 c 3.9961,0 6.7695,0.51953 8.3086,1.4961 1.5391,1.02343 2.5234,2.59764 2.9414,4.73434 0.4063,2.1094 0.6133,7.0508 0.6133,14.8438 V 73.957 c 0,7.4219 -0.207,12.1875 -0.6133,14.3438 -0.418,2.1601 -1.3359,3.6328 -2.7695,4.4648 -1.4258,0.8203 -4.5117,1.2305 -9.2344,1.2305 h -1.7344 v 3.125 l 11.6992,0.4766 c 9.3592,0.3828 16.6602,0.5586 21.8942,0.5586 9.641,0 17.067,-0.754 22.266,-2.2579 5.211,-1.5117 9.48,-4.1796 12.813,-8.039 3.332,-3.8242 4.996,-8.6797 4.996,-14.5274 0,-5.0898 -1.149,-9.5625 -3.414,-13.4492 -2.266,-3.8867 -5.512,-6.8476 -9.75,-8.8476 -4.25,-2.0118 -11.704,-3.0274 -22.379,-3.0274 h -10.243" /><path
         id="path18"
         style="fill:#231f20;fill-opacity:1;fill-rule:nonzero;stroke:none"
         d="m 232.086,20.1563 33.828,76.9648 h 28.711 v -3.125 h -3.437 c -4.59,0 -7.598,-0.3711 -9.016,-1.125 -1.426,-0.7695 -2.363,-2.168 -2.84,-4.2188 -0.488,-2.0703 -0.723,-6.9726 -0.723,-14.6953 V 28.3008 c 0,-7.3242 0.176,-12.1094 0.547,-14.3867 0.36,-2.2539 1.289,-3.93363 2.774,-5.02738 1.492,-1.11328 4.355,-1.66016 8.574,-1.66016 h 4.121 v -3.125 h -44.738 v 3.125 h 3.312 c 3.965,0 6.707,0.51953 8.262,1.4961 1.523,1.02343 2.519,2.59764 2.957,4.71484 0.441,2.1289 0.656,7.0703 0.656,14.8633 V 87.5117 L 228.434,4.10156 h -3.34 L 188.09,87.5117 V 33.0078 c 0,-7.4609 0.226,-12.5312 0.683,-15.2344 0.461,-2.6953 1.872,-5.0586 4.254,-7.0898 2.379,-2.03126 5.739,-3.1836 10.039,-3.45704 v -3.125 h -33.503 v 3.125 c 3.996,0.21485 7.257,1.3086 9.761,3.25004 2.524,1.9453 4.051,4.3476 4.586,7.1601 0.567,2.8516 0.848,8.1055 0.848,15.8008 V 73.957 c 0,7.3985 -0.223,12.1875 -0.656,14.3438 -0.442,2.1601 -1.364,3.6328 -2.77,4.4648 -1.394,0.8203 -4.469,1.2305 -9.219,1.2305 h -2.55 v 3.125 h 28.382 l 34.141,-76.9648" /><path
         id="path20"
         style="fill:#231f20;fill-opacity:1;fill-rule:nonzero;stroke:none"
         d="m 312.094,40.1172 c 0,-11.5039 2.277,-20.1367 6.855,-25.918 4.563,-5.74998 11.406,-8.63279 20.539,-8.63279 8.016,0 14.356,2.88281 18.992,8.63279 4.649,5.7813 6.993,14.375 6.993,25.8125 0,11.1211 -2.293,19.6563 -6.875,25.5742 -4.59,5.918 -11.231,8.8868 -19.942,8.8868 -8.582,0 -15.144,-2.8907 -19.707,-8.6914 -4.578,-5.7696 -6.855,-14.3165 -6.855,-25.6641 z m -12.176,0.3711 c 0,11.0351 3.68,19.9023 11.062,26.5937 7.375,6.668 16.563,10.0078 27.59,10.0078 11.121,0 20.418,-3.3007 27.891,-9.914 7.449,-6.6094 11.18,-15.6328 11.18,-27.0586 0,-11.0742 -3.575,-20.0391 -10.703,-26.8945 -7.157,-6.87504 -16.551,-10.29301 -28.204,-10.29301 -11.347,0 -20.652,3.41797 -27.91,10.29301 -7.273,6.8554 -10.906,15.957 -10.906,27.2656" /><path
         id="path22"
         style="fill:#231f20;fill-opacity:1;fill-rule:nonzero;stroke:none"
         d="m 1410.15,40.1172 c 0,-11.5039 2.29,-20.1367 6.86,-25.918 4.56,-5.74998 11.41,-8.63279 20.53,-8.63279 8.02,0 14.36,2.88281 19.01,8.63279 4.65,5.7813 6.98,14.375 6.98,25.8125 0,11.1211 -2.28,19.6563 -6.89,25.5742 -4.56,5.918 -11.22,8.8868 -19.93,8.8868 -8.58,0 -15.14,-2.8907 -19.7,-8.6914 -4.57,-5.7696 -6.86,-14.3165 -6.86,-25.6641 z m -12.18,0.3711 c 0,11.0351 3.7,19.9023 11.06,26.5937 7.38,6.668 16.6,10.0078 27.62,10.0078 11.1,0 20.42,-3.3007 27.87,-9.914 7.47,-6.6094 11.18,-15.6328 11.18,-27.0586 0,-11.0742 -3.58,-20.0391 -10.73,-26.8945 -7.13,-6.87504 -16.52,-10.29301 -28.17,-10.29301 -11.35,0 -20.64,3.41797 -27.91,10.29301 -7.28,6.8554 -10.92,15.957 -10.92,27.2656" /><path
         id="path24"
         style="fill:#231f20;fill-opacity:1;fill-rule:nonzero;stroke:none"
         d="m 408.676,41.1328 c 2.597,0.0781 5.273,0.1758 8.066,0.3125 2.774,0.1367 5.176,0.5274 7.227,1.1719 2.051,0.6445 3.711,1.5625 4.972,2.7656 1.27,1.2188 2.266,2.832 2.977,4.7813 0.734,1.9843 1.105,4.4062 1.105,7.2968 0,5.0391 -1.242,9.0743 -3.722,12.0899 -2.469,3.0273 -7.879,4.543 -16.199,4.543 -1.282,0 -2.774,-0.0704 -4.426,-0.2071 z M 462.418,4.23828 h -19.141 c -3.379,2.41406 -8.574,8.61332 -15.558,18.67972 -2.246,3.2148 -4.571,6.2929 -6.981,9.2304 -2.422,2.9493 -4.082,4.7579 -4.98,5.3985 -0.93,0.6562 -2.324,0.9687 -4.25,0.9687 h -2.832 V 22.7734 c 0,-5.5976 0.137,-9.2656 0.39,-10.9765 0.266,-1.7266 0.977,-3.02737 2.122,-3.86721 1.152,-0.83985 3.347,-1.25 6.582,-1.25 h 3.457 V 4.23828 h -34.278 v 2.44141 h 2.324 c 3.067,0 5.184,0.38281 6.375,1.15234 1.184,0.78125 1.934,1.98438 2.239,3.63277 0.332,1.6329 0.496,5.4297 0.496,11.4063 v 35.0781 c 0,5.7031 -0.164,9.375 -0.496,11.0352 -0.313,1.6523 -1.035,2.7851 -2.141,3.4179 -1.101,0.625 -3.504,0.9375 -7.187,0.9375 h -1.239 v 2.4493 l 10.215,0.4922 c 6.817,0.2812 12.215,0.4375 16.199,0.4375 6.817,0 12.356,-0.625 16.614,-1.8829 4.246,-1.2929 7.703,-3.3632 10.351,-6.25 2.617,-2.8828 3.926,-6.3398 3.926,-10.3554 0,-4.6875 -1.711,-8.6797 -5.117,-12 -3.418,-3.3008 -8.43,-5.3711 -15.059,-6.1836 2.996,-1.4024 7.793,-6.5977 14.414,-15.543 5.399,-7.2461 9.61,-11.9726 12.676,-14.25 3.074,-2.23437 6.699,-3.43749 10.879,-3.57421 V 4.23828" /><path
         id="path26"
         style="fill:#231f20;fill-opacity:1;fill-rule:nonzero;stroke:none"
         d="m 511.938,34.7852 h 30.917 v -2.4336 c -3.406,0 -5.73,-0.3711 -6.933,-1.0547 -1.231,-0.6836 -2.039,-1.8242 -2.422,-3.4375 -0.379,-1.6094 -0.574,-5.4961 -0.574,-11.668 V 8.55469 c -0.832,0.13672 -1.613,0.21484 -2.266,0.21484 -2.707,0 -6.25,-0.83984 -10.637,-2.48047 -5.976,-2.23828 -11.511,-3.35937 -16.601,-3.35937 -10.223,0 -18.731,3.3789 -25.508,10.11721 -6.777,6.7304 -10.176,15.2539 -10.176,25.5976 0,10.2227 3.262,19.2071 9.739,26.8907 6.492,7.707 15.293,11.5546 26.425,11.5546 9.578,0 17.5,-3.496 23.778,-10.5156 1.203,2.4883 1.925,5.1953 2.238,8.0742 h 2.449 V 50.6953 h -2.449 c -1.008,7.3125 -3.801,13.1016 -8.352,17.3828 -4.55,4.2461 -10.078,6.3946 -16.601,6.3946 -6.707,0 -12.559,-2.5 -17.547,-7.4922 -4.992,-4.9688 -7.48,-13.8242 -7.48,-26.5508 0,-12.6758 2.39,-21.6406 7.175,-26.9453 4.805,-5.28127 10.742,-7.91799 17.852,-7.91799 3.652,0 6.965,0.74218 9.941,2.24609 2.981,1.48438 5.02,3.3008 6.086,5.4492 1.094,2.1563 1.641,4.875 1.641,8.1524 0,3.832 -0.274,6.3984 -0.781,7.6679 -0.508,1.2891 -1.301,2.1485 -2.364,2.5977 -1.054,0.4297 -3.008,0.6719 -5.84,0.6719 h -1.71 v 2.4336" /><path
         id="path28"
         style="fill:#231f20;fill-opacity:1;fill-rule:nonzero;stroke:none"
         d="M 593.656,33.2813 581.188,63.5352 568.707,33.2813 Z m 1.086,-2.6368 h -27.129 l -1.875,-4.5312 c -2.746,-6.5899 -4.113,-10.8789 -4.113,-12.8828 0,-2.1563 0.723,-3.77737 2.188,-4.89066 1.464,-1.11328 3.351,-1.66015 5.675,-1.66015 V 4.23828 h -21.535 v 2.44141 c 3.176,0.50781 5.539,1.60937 7.11,3.35941 1.554,1.7461 3.429,5.4101 5.617,11.0156 0.234,0.5273 1.093,2.5703 2.597,6.1328 l 20.879,49.5313 h 2.09 l 23.817,-56.7579 3.253,-7.4804 c 0.75,-1.6797 1.747,-3.00784 2.989,-3.96487 1.25,-0.9961 3.125,-1.59375 5.613,-1.83594 V 4.23828 h -28.086 v 2.44141 c 3.438,0 5.762,0.26562 6.973,0.76172 1.211,0.51953 1.816,1.53125 1.816,3.03519 0,0.7734 -0.808,3.0781 -2.43,6.9179 l -5.449,13.25" /><path
         id="path30"
         style="fill:#231f20;fill-opacity:1;fill-rule:nonzero;stroke:none"
         d="M 695.211,2.57031 644.469,69.6758 V 20.0391 c 0,-4.1211 0.203,-6.836 0.594,-8.1446 0.41,-1.2812 1.542,-2.48825 3.437,-3.57419 1.895,-1.09375 4.738,-1.64062 8.527,-1.64062 V 4.23828 h -26.601 v 2.44141 c 3.379,0.24219 5.965,0.85937 7.754,1.875 1.777,0.99609 2.82,2.08201 3.164,3.24221 0.34,1.164 0.496,3.9062 0.496,8.2226 v 37.9297 c 0,5.4766 -0.254,9.1602 -0.77,11.0352 -0.507,1.8359 -1.32,3.0469 -2.433,3.5742 -1.121,0.5273 -3.614,0.7812 -7.461,0.7812 v 2.4493 h 21.34 l 42.332,-55.9844 v 42.793 c 0,3.1562 -0.321,5.3711 -0.977,6.6406 -0.644,1.2695 -1.98,2.2578 -3.973,3.0078 -2.011,0.7422 -4.414,1.0937 -7.226,1.0937 v 2.4493 h 25.848 v -2.4493 c -2.997,-0.2343 -5.352,-0.8203 -7.059,-1.7304 -1.719,-0.9063 -2.832,-2 -3.281,-3.2891 -0.481,-1.289 -0.715,-3.4687 -0.715,-6.5351 V 2.57031 h -2.254" /><path
         id="path32"
         style="fill:#231f20;fill-opacity:1;fill-rule:nonzero;stroke:none"
         d="m 830.414,38.75 h 3.117 V 6.07422 h -3.117 c -0.82,3.71875 -2.312,6.99218 -4.473,9.84378 -8.132,-9.21878 -18.535,-13.78909 -31.179,-13.78909 -13.371,0 -24.297,4.23828 -32.774,12.74609 -8.476,8.4844 -12.726,19.7148 -12.726,33.6992 0,9.1797 1.953,17.8321 5.859,25.9375 3.918,8.1172 9.387,14.1328 16.399,18.0586 7,3.9258 14.675,5.8985 23.035,5.8985 6.906,0 13.183,-1.4258 18.8,-4.2774 5.614,-2.832 9.813,-5.9766 12.586,-9.4336 2.004,3.875 3.235,7.8906 3.625,12.0313 h 3.133 l 0.832,-35.1563 h -3.117 c -2.051,12.4688 -6.219,21.1992 -12.539,26.1133 -6.289,4.9219 -13.406,7.3828 -21.336,7.3828 -9.68,0 -17.383,-3.9453 -23.105,-11.875 -5.715,-7.9023 -8.547,-19.2187 -8.547,-33.9453 0,-13.9492 3.078,-24.6406 9.328,-32.1016 6.258,-7.41403 14.023,-11.13278 23.281,-11.13278 4.961,0 10.047,1.20312 15.234,3.63281 5.184,2.42187 9.297,6.52347 12.313,12.29687 3.039,5.7695 4.824,11.3438 5.371,16.7461" /><path
         id="path34"
         style="fill:#231f20;fill-opacity:1;fill-rule:nonzero;stroke:none"
         d="M 908.891,40.3906 H 871.637 V 23.0977 c 0,-5.6446 0.156,-9.3477 0.418,-11.086 0.273,-1.7383 1.027,-3.03904 2.148,-3.8867 1.164,-0.84766 3.371,-1.26172 6.613,-1.26172 h 1.864 V 4.43359 h -32.403 v 2.42969 h 1.868 c 3.074,0 5.195,0.38281 6.386,1.16406 1.199,0.76172 1.973,1.97266 2.293,3.59376 0.324,1.6406 0.5,5.4492 0.5,11.4375 V 58.125 c 0,5.7031 -0.176,9.375 -0.5,11.0352 -0.32,1.6406 -1.054,2.7734 -2.136,3.4179 -1.067,0.625 -3.438,0.9571 -7.083,0.9571 h -1.328 v 2.4218 h 32.403 v -2.4218 h -1.328 c -3.536,0 -5.848,-0.293 -6.942,-0.8789 -1.105,-0.586 -1.855,-1.6602 -2.219,-3.2344 -0.39,-1.5899 -0.554,-5.3477 -0.554,-11.2969 V 43.9453 h 37.254 V 58.125 c 0,5.7031 -0.145,9.375 -0.457,11.0352 -0.325,1.6406 -1.016,2.7734 -2.082,3.4179 -1.055,0.625 -3.387,0.9571 -6.993,0.9571 h -1.882 v 2.4218 h 32.39 v -2.4218 h -1.023 c -3.547,0 -5.84,-0.293 -6.895,-0.8789 -1.094,-0.586 -1.828,-1.6602 -2.187,-3.2344 -0.383,-1.5899 -0.559,-5.3477 -0.559,-11.2969 V 23.0586 c 0,-5.6172 0.137,-9.3086 0.41,-11.0547 0.246,-1.75 0.957,-3.03124 2.102,-3.8789 1.18,-0.84766 3.34,-1.26172 6.543,-1.26172 h 1.609 V 4.43359 h -32.39 v 2.42969 h 2.461 c 3.007,0 5.097,0.38281 6.257,1.16406 1.164,0.78125 1.914,1.98436 2.239,3.61326 0.312,1.6407 0.457,5.4492 0.457,11.4571 v 17.2929" /><path
         id="path36"
         style="fill:#231f20;fill-opacity:1;fill-rule:nonzero;stroke:none"
         d="M 982.672,33.4492 970.211,63.7109 957.719,33.4492 Z m 1.062,-2.6289 h -27.089 l -1.895,-4.5508 c -2.734,-6.5625 -4.102,-10.8515 -4.102,-12.8515 0,-2.1485 0.715,-3.78909 2.188,-4.88284 1.465,-1.11328 3.352,-1.67188 5.676,-1.67188 V 4.43359 h -21.555 v 2.42969 c 3.195,0.5 5.559,1.61328 7.129,3.35152 1.543,1.7383 3.418,5.4297 5.637,11.0352 0.215,0.5195 1.062,2.5703 2.566,6.1133 l 20.879,49.5508 h 2.102 l 23.816,-56.7578 3.254,-7.4922 c 0.73,-1.668 1.74,-3.01566 2.99,-3.99222 1.24,-0.95704 3.11,-1.5625 5.61,-1.8086 V 4.43359 h -28.092 v 2.42969 c 3.425,0 5.769,0.26563 6.972,0.75391 1.2,0.52734 1.825,1.54297 1.825,3.02731 0,0.7813 -0.809,3.086 -2.442,6.9336 l -5.469,13.2422" /><path
         id="path38"
         style="fill:#231f20;fill-opacity:1;fill-rule:nonzero;stroke:none"
         d="M 1020.07,5.16406 V 28.2227 h 2.62 c 2.99,-14.9922 10.09,-22.48051 21.26,-22.48051 5.01,0 8.93,1.44531 11.68,4.29691 2.76,2.8711 4.13,6.0625 4.13,9.6093 0,3.5743 -1.2,6.5899 -3.62,9.0118 -2.41,2.3945 -6.84,4.9531 -13.27,7.6875 -5.75,2.4609 -10.06,4.6211 -12.96,6.4648 -2.91,1.8438 -5.2,4.2383 -6.84,7.1992 -1.62,2.9571 -2.43,6.1016 -2.43,9.4414 0,5.0977 1.76,9.336 5.32,12.7344 3.55,3.3984 8.03,5.0977 13.48,5.0977 3.05,0 5.9,-0.4883 8.59,-1.4844 2.68,-0.9649 5.42,-3.0156 8.24,-6.1016 1.64,1.9219 2.55,4.0117 2.77,6.2578 h 2.22 V 57.2461 h -2.22 c -1.35,5.3906 -3.74,9.6602 -7.16,12.7539 -3.41,3.1055 -7.38,4.6484 -11.88,4.6484 -4.28,0 -7.43,-1.1328 -9.44,-3.4179 -1.99,-2.2735 -3,-4.7852 -3,-7.5 0,-3.2813 1.27,-6.0547 3.78,-8.3008 2.46,-2.3047 6.94,-4.9219 13.38,-7.8125 6.15,-2.7539 10.65,-4.9805 13.45,-6.6484 2.8,-1.6719 5.05,-3.9961 6.76,-6.9454 1.67,-2.9687 2.53,-6.3671 2.53,-10.2343 0,-6.1133 -2.04,-11.0938 -6.15,-14.92191 -4.08,-3.83594 -9.53,-5.75391 -16.36,-5.75391 -7.87,0 -14.43,3.01953 -19.67,9.02732 -1.17,-1.6406 -2.03,-3.96872 -2.59,-6.97654 h -2.62" /><path
         id="path40"
         style="fill:#231f20;fill-opacity:1;fill-rule:nonzero;stroke:none"
         d="m 1137.76,26.7188 h 2.44 l -1.56,-22.28521 h -58.93 v 2.42969 h 1.48 c 3.51,0 5.8,0.47266 6.82,1.42578 1.04,0.94922 1.67,2.16014 1.96,3.60544 0.27,1.4532 0.41,5.1758 0.41,11.1641 V 58.125 c 0,5.4688 -0.14,9.0508 -0.44,10.7734 -0.31,1.7266 -1,2.9297 -2.06,3.6016 -1.1,0.6953 -3.38,1.0352 -6.86,1.0352 v 2.4218 h 50.93 l 1.7,-17.7617 h -2.43 c -1.14,4.961 -2.5,8.4961 -4.13,10.5664 -1.62,2.0977 -3.53,3.4141 -5.78,3.9531 -2.23,0.5469 -5.82,0.8204 -10.78,0.8204 h -9.83 v -29.961 h 7.53 c 3.46,0 5.88,0.293 7.24,0.8789 1.39,0.6055 2.29,1.5039 2.73,2.7149 0.45,1.2109 0.65,3.5742 0.65,7.0703 h 2.43 v -24.336 h -2.43 c 0,3.9649 -0.32,6.6211 -0.99,7.9883 -0.66,1.336 -1.61,2.2266 -2.9,2.6367 -1.28,0.3907 -3.43,0.6055 -6.47,0.6055 h -7.79 v -16.914 c 0,-8.4571 0.52,-13.4454 1.63,-14.92192 1.09,-1.50391 4.01,-2.2461 8.79,-2.2461 h 5.29 c 3.76,0 6.85,0.4375 9.28,1.3086 2.39,0.8789 4.71,2.80082 6.89,5.82032 2.19,2.9961 3.93,7.1758 5.18,12.5391" /><path
         id="path42"
         style="fill:#231f20;fill-opacity:1;fill-rule:nonzero;stroke:none"
         d="m 1208.33,64.6875 c 9.56,5.5664 14.31,11.582 14.31,18.0586 0,3.8555 -1.04,6.9727 -3.18,9.3555 -2.13,2.3828 -4.97,3.5547 -8.46,3.5547 -3.45,0 -6.22,-1.1446 -8.32,-3.418 -2.09,-2.2656 -3.12,-5.1094 -3.12,-8.5 0,-4.6563 2.94,-11.0156 8.77,-19.0508 z m -7.14,-8.6602 c -5.04,-3.0585 -8.93,-6.6328 -11.65,-10.7148 -2.77,-4.1016 -4.13,-8.0664 -4.13,-11.875 0,-5.8789 2.37,-11.457 7.13,-16.6797 4.75,-5.2539 10.12,-7.87108 16.12,-7.87108 6.69,0 12.85,3.30078 18.51,9.90238 -10.06,15.3437 -18.73,27.7343 -25.98,37.2382 z m 30.84,6.7657 h 30.79 v -3.3399 c -3.87,-1.0351 -7.26,-2.9023 -10.14,-5.5664 -2.9,-2.6679 -5.88,-7.6953 -8.94,-15.0898 -2.57,-6.1016 -4.95,-10.5547 -7.1,-13.4258 5.12,-7.3359 9.15,-11.9727 12.06,-13.9453 2.93,-1.97267 6.03,-2.94924 9.33,-2.94924 4.5,0 7.98,2.16014 10.41,6.45704 h 3.32 c -0.99,-3.9375 -3.15,-7.10157 -6.42,-9.50391 -3.28,-2.40235 -7.08,-3.61328 -11.37,-3.61328 -9.36,0 -17.56,4.66797 -24.66,14.03129 -8.42,-9.36332 -17.33,-14.03129 -26.73,-14.03129 -4.6,0 -8.97,1.11328 -13.16,3.33203 -4.21,2.21484 -7.62,5.32816 -10.25,9.34376 -2.65,3.9922 -3.96,8.6445 -3.96,13.8867 0,6.0156 1.64,11.0547 4.93,15.1367 3.27,4.0821 9.57,9.2383 18.88,15.4297 -5.61,7.793 -8.41,14.836 -8.41,21.125 0,4.9766 1.91,9.4024 5.73,13.3008 3.84,3.8867 8.64,5.8398 14.43,5.8398 5.15,0 9.8,-1.4648 13.99,-4.375 4.14,-2.9218 6.22,-6.7382 6.22,-11.457 0,-7.3633 -6.88,-14.4922 -20.62,-21.4062 8.54,-11.5039 16.57,-22.6368 24.14,-33.3789 2.71,3.8007 4.87,7.7539 6.46,11.8359 1.54,4.0625 2.37,7.2344 2.37,9.5312 0,5.4688 -3.77,8.6407 -11.3,9.4922 v 3.3399" /><path
         id="path44"
         style="fill:#231f20;fill-opacity:1;fill-rule:nonzero;stroke:none"
         d="m 1377.33,39.0625 h 3.12 V 6.39844 h -3.12 c -0.82,3.69926 -2.33,6.98046 -4.47,9.83206 -8.14,-9.19925 -18.56,-13.78909 -31.17,-13.78909 -13.37,0 -24.3,4.23828 -32.79,12.73439 -8.49,8.5078 -12.73,19.7461 -12.73,33.7226 0,9.1875 1.96,17.8399 5.88,25.9375 3.89,8.1055 9.38,14.1211 16.38,18.0547 6.99,3.918 14.67,5.8907 23.04,5.8907 6.92,0 13.19,-1.4063 18.8,-4.2696 5.61,-2.8203 9.81,-5.9844 12.59,-9.4336 2.01,3.8789 3.22,7.8828 3.65,12.043 h 3.1 l 0.84,-35.168 h -3.12 c -2.05,12.4805 -6.22,21.1836 -12.54,26.1055 -6.3,4.9414 -13.41,7.4023 -21.33,7.4023 -9.7,0 -17.38,-3.957 -23.11,-11.8867 -5.71,-7.8906 -8.55,-19.2187 -8.55,-33.9531 0,-13.957 3.12,-24.6484 9.34,-32.0898 6.23,-7.4141 13.99,-11.13286 23.28,-11.13286 4.96,0 10.04,1.20703 15.23,3.64066 5.18,2.4023 9.31,6.4961 12.31,12.2656 3.04,5.7812 4.83,11.3672 5.37,16.7578" /><path
         id="path46"
         style="fill:#231f20;fill-opacity:1;fill-rule:nonzero;stroke:none"
         d="m 1481.7,10.1758 c 0,2.1484 0.77,3.9922 2.32,5.5273 1.53,1.543 3.37,2.2969 5.53,2.2969 2.18,0 4.05,-0.7539 5.59,-2.2969 1.53,-1.5351 2.31,-3.3789 2.31,-5.5273 0,-2.20705 -0.78,-4.0508 -2.34,-5.60549 -1.57,-1.53515 -3.43,-2.30468 -5.56,-2.30468 -2.2,0 -4.05,0.80078 -5.57,2.38281 -1.51,1.60156 -2.28,3.4375 -2.28,5.52736" /></g></g></svg>